<?xml version="1.0" standalone="no"?>
<!DOCTYPE svg PUBLIC "-//W3C//DTD SVG 20010904//EN"
 "http://www.w3.org/TR/2001/REC-SVG-20010904/DTD/svg10.dtd">
<svg version="1.0" xmlns="http://www.w3.org/2000/svg"
 width="705.000000pt" height="705.000000pt" viewBox="0 0 705.000000 705.000000"
 preserveAspectRatio="xMidYMid meet">

<g transform="translate(0.000000,705.000000) scale(0.100000,-0.100000)"
fill="#000000" stroke="none">
<path d="M6508 3763 l-3 -3258 -800 1 c-440 0 -1370 4 -2067 9 l-1268 8 0
-246 0 -247 2215 0 2216 0 49 25 c55 28 93 72 115 134 13 39 15 425 15 3421 0
1858 -3 3385 -6 3394 -5 14 -36 16 -235 16 l-229 0 -2 -3257z"/>
<path d="M66 6798 c-5 -164 -2 -6748 3 -6754 0 -1 16 0 33 2 18 1 122 3 230 3
l198 1 2 2348 3 2347 911 3 912 2 6 -22 c3 -13 6 -690 6 -1505 l0 -1481 33
-44 c18 -24 54 -58 81 -75 l48 -33 844 0 844 0 -2 232 -3 233 -682 3 -683 2 0
820 0 820 690 0 690 0 0 240 0 240 835 0 835 0 0 235 0 235 -682 0 c-418 -1
-684 3 -687 9 -3 5 -8 424 -10 931 -3 772 -1 924 10 931 8 5 317 9 687 9 l672
0 0 240 0 240 -835 0 c-831 0 -836 0 -878 -21 -56 -28 -85 -56 -110 -104 -20
-40 -20 -41 -13 -1299 7 -1216 7 -1260 26 -1296 11 -21 38 -54 62 -74 l42 -36
-680 2 -679 3 -3 1408 -2 1407 -229 0 c-175 0 -230 -3 -234 -12 -2 -7 -2 -404
1 -882 4 -736 3 -869 -9 -877 -15 -10 -1760 -12 -1796 -3 l-23 6 0 889 0 889
-229 0 -229 0 -6 -212z"/>
</g>
</svg>
